<svg width="407" height="412" viewBox="0 0 407 412" fill="none" xmlns="http://www.w3.org/2000/svg">
<g clip-path="url(#clip0_184_1315)">
<path d="M28.8996 163.99C28.8996 116.717 28.8996 69.4433 28.8996 22.17C28.8996 8.34001 36.8996 0.0600135 50.7996 0.0500135C152.166 -0.00998649 253.536 -0.0266715 354.91 -4.80004e-06C364.35 -4.80004e-06 371.25 3.84 375.18 12.51C375.491 13.2722 375.98 13.9487 376.606 14.4829C377.233 15.017 377.978 15.3933 378.78 15.58C378.78 17 377.68 17.11 376.69 17.36C374.459 17.4 372.251 16.9063 370.25 15.92C368.77 14.55 371.56 12.38 369.33 11.13C365.22 5.81 359.57 4.85999 353.33 4.86999C284.463 4.94332 215.593 4.96001 146.72 4.92001C115.28 4.92001 83.8396 5.07 52.3996 4.82C43.0596 4.75 36.7096 8.19999 33.4796 17.03C31.4796 23.03 32.7096 29.25 32.6596 35.36C32.6596 37.64 34.4795 38.77 36.7695 38.86C38.5995 38.94 40.4295 38.86 42.2595 38.86C135.306 38.86 228.353 38.86 321.4 38.86C324.31 38.86 327.4 38.01 330.02 40.28C330.17 40.578 330.26 40.9029 330.284 41.236C330.308 41.569 330.266 41.9035 330.16 42.22C329.447 42.9453 328.509 43.4071 327.5 43.53C324.516 43.9139 321.503 44.021 318.5 43.85C226.5 43.85 134.473 43.85 42.4196 43.85C39.6096 43.85 36.7396 43.42 34.0496 44.61C32.0496 46.22 32.4696 48.5 32.4696 50.61C32.4696 88.52 32.3796 126.44 32.4696 164.35C32.2496 165.57 31.3396 165.74 30.3396 165.77C29.3896 165.65 28.5996 165.26 28.8996 163.99Z" fill="#060606"/>
<path d="M399.82 33.33C402.077 36.5513 403.484 40.2901 403.91 44.2C404.63 46.8 404.78 49.35 403.26 51.76C397.81 64.76 386.96 70.61 374.02 73.64C371.73 73.59 371.82 70.64 369.87 70.19C363.31 66.89 361.87 60.35 360.15 54.19C358.26 47.59 358.51 47.52 351.95 47.79C351.574 47.7382 351.212 47.6115 350.886 47.4174C350.559 47.2233 350.275 46.9658 350.05 46.66C347.05 42.33 343.32 38.41 343.58 32.47C343.563 30.2959 344.151 28.16 345.28 26.3018C346.409 24.4436 348.033 22.9367 349.97 21.95C354.42 19.49 357.52 20.03 360.13 24.39C361.8 27.18 363.01 27.67 365.9 25.87C376.27 19.43 385.17 21.38 392.23 31.35C393.23 32.74 394.05 34.17 396.05 34.05C397.38 34.26 398.41 32.77 399.82 33.33Z" fill="black"/>
<path d="M378.81 328.05C375.98 328.53 376.94 330.78 376.93 332.4C376.84 340.05 376.93 347.71 376.87 355.4C376.77 368.12 368.4 376.68 355.72 377.09C354.06 377.14 352.39 377.09 350.72 377.09H127.55C125.39 377.09 123.22 377.18 121.06 377.23C120.06 377.57 119.73 376.94 119.5 376.15C119.99 373.72 120.95 371.66 123.59 370.89C124.402 371.163 125.165 371.565 125.85 372.08C128.307 372.547 130.812 372.722 133.31 372.6H351.6C354.264 372.714 356.932 372.516 359.55 372.01C366.63 370.33 371.67 364.84 372.11 357.65C372.59 349.84 372.28 342.01 372.24 334.18C372.24 330.98 370.57 329.89 367.55 329.76C363.78 329.6 359.87 330.54 356.26 328.65C355.16 326.88 356.68 326.65 357.73 326.08C363.889 325.53 370.082 325.47 376.25 325.9C377.41 326.26 378.81 326.33 378.81 328.05Z" fill="#070707"/>
<path d="M377.83 232.4C385.852 234.46 393 239.042 398.221 245.471C403.442 251.9 406.46 259.836 406.83 268.11C407.55 285.52 397.1 301.46 381.08 306.89C377.43 308.13 375.38 309.41 377.76 313.38C377.76 314.11 377.43 314.82 376.76 314.9C370.43 315.62 364.07 316.82 357.87 314.17C358.13 311.51 360.34 312.07 361.87 311.9C364.65 311.6 367.48 311.97 370.33 311.22C362.97 310.71 355.8 309.53 349.13 306.22C346.96 304.8 344.86 303.29 342.67 301.9C329.31 291.03 324.67 276.83 328.52 260.44C332.29 244.27 343.1 234.32 359.29 230.5C363.994 229.355 368.905 229.355 373.61 230.5C374.094 230.729 374.493 231.106 374.748 231.578C375.004 232.049 375.102 232.589 375.03 233.12C373.39 234.78 371.35 234.22 369.39 234.12C348.74 233.34 332.55 248.18 331.6 268.82C331.42 272.65 332.52 276 335.6 278.51C340.13 282.15 344.52 285.97 349.98 288.21C351.98 290.05 355.53 288.91 356.98 291.82C356.778 292.277 356.473 292.682 356.09 293.002C355.707 293.323 355.255 293.552 354.77 293.67C349.46 293.73 345.39 290.82 341.28 288.01C338.71 286.26 336.45 284.1 333.76 282.07C336.9 293.87 352.76 307.07 368.76 305.99C382.61 305.11 396.29 296.36 400.03 284.31C397.03 283.5 394.54 286.96 391.56 285.31C391.299 284.891 391.17 284.403 391.19 283.91C392.39 280.97 395.31 280.71 397.76 280C401.76 278.86 403.32 276.53 403.44 272.41C403.92 255.25 394.76 241.67 378.34 235.62C377.26 235.22 376.08 234.98 375.47 233.83C375.62 232.26 376.97 232.75 377.83 232.4Z" fill="#2D2319"/>
<path d="M60.0997 377.13C56.6197 377.13 53.0997 377.21 49.6397 377.06C37.1097 376.51 28.9297 368.16 28.8997 355.64C28.8297 323.92 28.8997 292.19 28.8997 260.47C28.6597 258.94 29.7097 258.31 30.8997 258.19C36.4085 257.54 41.9758 257.56 47.4797 258.25C47.8856 258.315 48.2662 258.489 48.5814 258.753C48.8965 259.017 49.1343 259.362 49.2697 259.75C47.2697 262.55 44.1697 261.62 41.4897 261.69C33.6297 261.88 33.6197 261.8 33.6197 269.82C33.6197 297.71 33.9897 325.61 33.4397 353.5C33.1997 365.75 41.4397 373.2 52.4397 372.63C53.9397 372.55 55.4397 372.72 56.9197 372.55C57.4771 372.384 58.0591 372.316 58.6397 372.35C60.5597 372.66 61.7397 373.67 61.8097 375.72C61.5097 376.57 61.1597 377.26 60.0997 377.13Z" fill="#131313"/>
<path d="M370.73 69.37C373.79 69.08 372.3 72.37 373.79 73.28C374.79 78.6 373.53 80.69 364.88 87.71C371.473 88.5761 378.164 87.1384 383.82 83.64C396.09 76.4 401.18 65.12 401.87 51.39C404.46 49.54 403.59 46.7 403.87 44.2C409.04 60.85 398.76 81.09 381.39 88.47C375.56 90.94 375.14 93.33 379.76 97.65C383.76 101.42 382.91 107.31 377.84 110.32C377.516 109.963 377.32 109.51 377.28 109.03C378.06 105.53 380.28 101.81 375.74 99.12C370.29 98.12 364.8 98.98 359.35 98.65C357.29 98.53 354.91 99.17 353.63 96.7C355.39 94.15 358.1 95.1 360.46 94.9C363.97 94.6 367.59 95.39 371.03 93.62C364.78 92.28 358.16 93.44 352.24 90.54C340.34 85.93 332.04 77.78 327.78 65.66C326.974 63.4886 326.545 61.1958 326.51 58.88C326.82 56 325.69 52.88 327.82 50.3C328.29 50.068 328.822 49.9943 329.338 50.0898C329.853 50.1854 330.324 50.445 330.68 50.83C331.68 52.09 330.45 53.09 330.29 54.22C329.29 68.43 345.48 87.22 358.37 87.02C359.37 84.52 353.92 82.63 357.66 79.87C365.66 83.5 370.02 80.58 370.38 71.29C370.354 70.6321 370.474 69.9766 370.73 69.37Z" fill="#161C1E"/>
<path d="M377.8 109.04C377.8 109.47 377.86 109.89 377.88 110.32C376.39 111.63 376.88 113.4 376.88 115.01C376.88 152.77 376.88 190.533 376.88 228.3C376.88 229.68 376.16 231.3 377.8 232.4L375.68 233.4C375.543 233.487 375.378 233.52 375.219 233.49C375.059 233.46 374.916 233.371 374.82 233.24L373.82 231.19C372.33 229.59 372.28 227.56 372.28 225.57C372.28 188.74 372.18 151.91 372.28 115.08C372.285 114.251 372.365 113.424 372.52 112.61C372.637 111.832 372.938 111.094 373.399 110.457C373.86 109.82 374.468 109.303 375.17 108.95C375.581 108.742 376.037 108.641 376.497 108.657C376.957 108.673 377.405 108.805 377.8 109.04Z" fill="black"/>
<path d="M60.0996 377.13L61.0996 375.94C61.4296 375.87 61.8796 375.76 62.0996 375.94C67.1696 381.51 73.0996 378.08 78.7596 377.55C79.7596 377.46 80.9496 377.2 81.1496 376.11C81.4496 374.53 79.8896 374.37 78.9096 373.95C76.2996 372.83 73.4796 371.95 73.2496 368.45C73.2811 367.971 73.4334 367.508 73.6922 367.104C73.951 366.7 74.3079 366.369 74.7296 366.14C76.1096 365.61 76.9196 366.67 77.8996 367.26C79.5796 368.51 81.2896 369 83.1596 367.59C83.3912 367.368 83.6729 367.205 83.9807 367.115C84.2884 367.025 84.6134 367.01 84.9281 367.072C85.2428 367.134 85.5381 367.27 85.789 367.47C86.0399 367.67 86.239 367.927 86.3696 368.22C88.2996 373.4 84.9596 378.22 85.4396 383.36C84.2096 385.36 82.6896 384.26 81.6796 383.36C78.9096 380.98 76.1896 382.01 73.2296 382.85C78.8596 389.54 94.7396 390.85 104.52 385.47C103.4 383.79 101.29 384.04 99.8496 383.05C99.243 382.714 98.7226 382.241 98.3296 381.67C94.6096 379.8 95.2496 377.19 97.1496 374.43C99.8034 370.852 102.905 367.629 106.38 364.84C110.98 360.84 111.63 358.6 109.73 352.7C109.15 350.88 107.73 349.16 108.8 347.06C109.196 346.776 109.672 346.625 110.16 346.63C111.528 347.632 112.68 348.899 113.547 350.356C114.414 351.813 114.979 353.43 115.208 355.11C115.437 356.79 115.324 358.499 114.878 360.134C114.431 361.77 113.66 363.299 112.61 364.63C110.42 367.35 107.69 369.57 105.36 372.17C101.43 376.54 101.7 378.17 106.76 381.28C107.607 381.807 108.41 382.402 109.16 383.06C109.97 383.91 111.16 384.51 110.99 386C94.6496 396.58 73.5096 392.9 60.0996 377.13Z" fill="#151515"/>
<path d="M28.9003 163.99L30.3503 165.48C29.8503 167.48 28.0003 167.64 26.5103 168.23C3.58025 177.39 -3.88974 204.88 11.0803 224.58C13.1603 227.31 15.0803 227.69 17.7303 225.97C18.1786 226.156 18.5724 226.453 18.875 226.832C19.1776 227.212 19.3789 227.662 19.4603 228.14C18.5403 231.61 20.7003 233.14 23.3403 234.47C25.4003 235.55 28.3403 235.26 29.3403 238.09C29.2489 238.434 29.0701 238.748 28.8212 239.002C28.5724 239.256 28.262 239.441 27.9203 239.54C10.6003 233.37 0.160254 219.48 0.0102541 202.46C-0.129746 185.24 9.77026 171.46 27.0803 164.74L28.9003 163.99Z" fill="#232419"/>
<path d="M27.9095 239.54L29.1696 238.14C30.8996 236.92 32.7296 237.88 34.4896 237.97C52.2196 238.87 63.8196 232.25 72.6796 215.9C71.3396 215.98 70.2996 216.9 69.0596 216.67C67.8396 216.23 66.6495 215.75 66.8795 214.09C67.8795 212.69 69.4795 212.09 70.7695 211.01C74.2795 208.17 75.9796 204.63 75.1696 200.01C74.599 197.736 74.6404 195.352 75.2896 193.1C75.4302 192.722 75.707 192.409 76.0659 192.224C76.4247 192.039 76.8397 191.995 77.2296 192.1C78.3062 193.034 79.0152 194.321 79.2296 195.73C79.4846 199.625 79.5346 203.53 79.3795 207.43C78.4895 213.43 76.6995 219.06 73.0895 224.01C71.5562 225.85 70.0862 227.74 68.6796 229.68C65.8436 232.492 62.6613 234.931 59.2095 236.94C57.6695 237.69 56.1495 238.49 54.6395 239.31C51.5386 240.862 48.1062 241.634 44.6395 241.56C41.2295 241.64 37.8195 241.31 34.4595 241.8C32.8495 243.59 34.6096 243.58 35.5596 243.67C38.8196 243.97 42.0995 243.67 45.3495 243.86C47.1495 243.98 49.4095 243.36 50.2195 245.94C49.9524 246.36 49.585 246.707 49.1503 246.95C48.7156 247.192 48.2273 247.323 47.7296 247.33C41.0596 247.43 34.3696 248.33 27.7296 246.8L27.0596 246.15C28.2396 244.11 29.9695 242.09 27.9095 239.54Z" fill="#231814"/>
<path d="M90.2503 411.32C87.2503 411.32 84.2503 411.5 81.2503 411.32C76.6403 410.98 74.0803 407.98 74.1703 403.37C74.2603 398.76 76.9103 396.11 81.7303 396.02C87.5503 395.92 93.3802 395.93 99.2002 396.02C103.97 396.1 106.74 398.86 106.81 403.36C106.88 407.86 104.3 410.97 99.7002 411.31C96.5802 411.5 93.4103 411.32 90.2503 411.32Z" fill="#2F2F2F"/>
<path d="M357.91 313.36C364.472 314.664 371.227 314.664 377.79 313.36C381.85 313.92 383.86 316.36 383.95 320.36C384.04 324.06 383.18 327.26 378.81 328.04L376.62 326.98C376.613 326.648 376.719 326.324 376.92 326.06C378.92 324.06 381.6 322.29 379.92 318.95C378.44 316.01 375.42 316.59 372.83 316.53C369.01 316.44 365.2 316.46 361.38 316.53C359.24 316.53 356.88 316.39 355.77 318.82C354.77 321.05 355.62 323.01 357.1 324.77C357.677 325.362 358.03 326.136 358.1 326.96L355.89 327.96C351.67 327.3 349.56 324.24 350.2 319.68C350.97 314.79 353.56 312.63 357.91 313.36Z" fill="#3B3B3B"/>
<path d="M399.82 33.33C398.82 33.98 398.44 35.72 396.71 35.24C393.71 27.59 387.91 22.87 380.71 19.42C379.22 18.69 376.98 18.83 376.71 16.42L378.71 15.57C383.261 16.9182 387.486 19.1915 391.118 22.2475C394.75 25.3034 397.713 29.0764 399.82 33.33Z" fill="#332D1D"/>
<path d="M49.0198 260.1C42.2898 259.1 35.5598 258.35 28.8898 260.47C24.9798 259.22 22.7698 256.74 22.9398 252.47C23.0598 249.57 23.2398 246.74 27.0098 246.23H27.1199C27.4462 246.681 27.6244 247.223 27.6298 247.78C27.5398 248.94 27.0398 250.01 26.8398 251.14C26.1998 254.69 27.7798 256.53 31.2798 256.71C35.8998 256.94 40.5298 256.71 45.1498 256.83C47.2598 256.83 49.4898 256.55 51.2698 258.17C51.5998 260.08 51.1498 261.07 49.0198 260.1Z" fill="#353535"/>
<path d="M110.97 386L108.97 384.26C112.82 381.83 114.97 377.14 119.97 376.2L121.06 377.25C118.448 380.934 114.987 383.936 110.97 386Z" fill="#172D31"/>
<path d="M49.0203 260.1C50.6503 260.49 51.3503 259.58 51.7103 258.19C51.8973 257.796 52.1511 257.437 52.4603 257.13C54.4603 255.51 53.9603 252.62 55.7103 250.88C56.3503 250.06 57.9603 249.55 57.4003 248.38C56.7303 246.97 55.1304 248.12 53.9704 247.87C53.1654 247.723 52.4 247.41 51.7232 246.95C51.0464 246.491 50.4732 245.894 50.0404 245.2C44.6504 245.13 39.2603 245.09 33.8803 244.94C32.8803 244.94 31.3303 245.7 31.2003 243.83C31.1103 242.51 30.4003 240.73 32.6903 240.36C36.9302 240.945 41.2304 240.945 45.4704 240.36C48.8904 240.65 51.7803 238.63 55.0303 238.18C58.2603 240.99 57.9503 237.32 58.9503 236.04L67.8203 229.09C70.5703 228.49 71.0603 226.09 71.8803 223.96C74.7988 219.101 76.9032 213.798 78.1104 208.26C78.5731 207.361 78.7142 206.33 78.5103 205.34C78.1203 201.94 80.0203 200.94 82.9603 200.9C84.2903 200.9 85.6203 200.9 86.9603 200.9C151.56 200.9 216.16 200.56 280.75 201.11C300.05 201.28 319.31 199.96 338.6 200.64C346.97 200.94 348.23 199.47 348.27 191.21C348.344 176.543 348.344 161.893 348.27 147.26C348.27 138.93 346.27 137.02 337.88 136.96C320.24 136.84 302.59 137.08 284.95 136.86C254.84 136.61 224.73 136.79 194.62 136.76C156.7 136.76 118.777 136.76 80.8504 136.76C71.0104 136.76 69.4803 138.28 69.4603 147.93C69.4603 154.59 69.4603 161.24 69.4603 167.93C69.4603 169.93 69.6604 171.93 68.6704 173.78C66.4104 176.04 64.8604 174.04 63.2204 172.78C57.4804 168.51 51.3303 165.22 44.0103 164.71C40.1403 164.35 36.1404 165.57 32.4104 163.71C31.1404 162.48 31.6204 160.89 31.6204 159.46C31.6204 121.727 31.6204 84 31.6204 46.28C31.6204 45.01 31.1404 43.6 32.3004 42.51H327.67C329.67 44.51 328.2 46.51 327.67 48.51C327.257 49.5913 327.002 50.7262 326.91 51.88C326.39 58.51 326.05 58.94 319.69 58.98C309.09 59.05 298.48 59.11 287.88 58.98C253.08 58.72 218.28 58.89 183.48 58.92C176.76 58.92 174.48 61.29 174.42 68.02C174.3 83.67 174.36 99.32 174.42 114.97C174.42 121.72 176.69 123.97 183.52 123.97C235.14 124.037 286.757 124.037 338.37 123.97C339.534 124.006 340.695 123.854 341.81 123.52C347.52 121.95 348.1 121.03 348.54 115.09C348.72 112.63 347.27 109.32 351.12 108.09C355.89 110.81 361.12 109.78 366.22 110.02C368.79 110.14 371.6 109.29 373.78 111.49C373.86 123.3 374.01 135.11 374 146.91C374 175.03 373.94 203.147 373.82 231.26C356.82 229.63 343.02 235.26 334.07 250.14C323.64 267.5 327.54 286.82 343.8 301.51C343.17 306.51 347.15 304.35 349.27 305.08C356.18 308.16 363.27 310.08 370.98 309.31C372.49 309.16 373.98 308.85 373.98 311.31C373.98 313.77 372.22 313.22 370.86 313.25C366.55 313.36 362.24 313.39 357.93 313.45C353.93 313.59 351.93 316.06 351.52 319.72C351.11 323.38 351.79 326.72 355.96 328.02C360.96 329.02 365.96 328.41 370.9 328.46C373.25 328.46 374.11 329.16 374.07 331.59C373.93 340.25 374.2 348.92 373.89 357.59C373.57 366.59 366.68 373.4 357.63 374.17C356.31 374.28 354.97 374.23 353.63 374.23C278.67 374.23 203.714 374.197 128.76 374.13C127.33 374.13 124.58 376.13 124.15 372.54C124.538 370.585 125.076 368.662 125.76 366.79C134.98 343.54 120.05 316.29 92.1804 314.9C70.3504 313.81 51.9203 331.49 53.0203 354.67C53.3403 361.32 56.1303 367.15 57.6503 373.39C43.4403 377.54 31.8203 369.33 31.7803 354.95C31.7203 324.89 31.7804 294.82 31.6804 264.75C31.6804 261.27 32.5803 260.13 36.0903 260.34C40.3703 260.49 44.7003 260.17 49.0203 260.1Z" fill="#FEFEFE"/>
<path d="M32.04 16.34C35.45 6.76997 42.21 2.94998 52.36 2.96998C152.913 3.12998 253.467 3.12998 354.02 2.96998C361.93 2.96998 367.92 5.51999 372.02 12.33C370.48 14.77 367.96 14.58 365.59 14.71C350.86 15.49 339.41 21.62 332.59 35.13C330.89 38.52 328.66 39.87 324.77 39.87C228.59 39.77 132.407 39.77 36.22 39.87C32.54 39.87 31.14 39.05 31.48 35.2C32.04 28.94 30.97 22.61 32.04 16.34Z" fill="#E7E5E5"/>
<path d="M75.8397 193.58C76.0897 196.03 76.3997 198.47 76.5697 200.93C77.0497 207.55 73.7697 212.09 67.0097 214.29C62.8797 210.54 63.4697 205.29 62.8297 200.49C62.3697 197.05 62.2298 193.55 61.6198 190.12C59.9798 180.92 53.4998 175.25 44.1698 174.63C24.4898 173.31 16.1197 182.42 13.5797 202.48C12.6642 209.627 13.9921 216.881 17.3797 223.24C17.6791 223.638 17.8849 224.098 17.9819 224.586C18.0789 225.074 18.0644 225.578 17.9397 226.06C16.0297 230.14 14.1798 229.94 11.2398 226.64C-5.00023 208.43 0.909767 178.86 23.0498 168.47C25.4298 167.36 27.9098 166.47 30.3498 165.47L32.0197 165.17C38.8997 163.5 45.7097 163.57 52.3397 166.25C61.6697 170.01 69.2697 175.81 73.8897 185.02C75.3075 187.642 75.9818 190.602 75.8397 193.58Z" fill="#B9D955"/>
<path d="M376.74 16.43C384.63 19.49 391.52 23.88 396.4 31.02C397.4 32.41 398.61 33.68 396.71 35.24C395.14 35.24 393.53 37.78 392.06 34.36C387.13 22.91 374.95 20.05 365.14 27.75C364.14 28.55 363.14 29.46 362.26 30.25C360.66 29.73 360.77 28.32 360.41 27.34C359.41 24.53 357.96 21.89 354.79 21.67C351.62 21.45 349.07 23.19 347.14 25.67C343.54 30.28 344.01 37.22 348.14 42.28C349.14 43.51 351.05 44.13 350.85 46.18C350.133 50.5741 348.03 54.6241 344.85 57.74C339.551 57.536 334.535 55.2933 330.85 51.48C330.22 51 329.08 51.48 328.76 50.37C326.7 47.37 328.76 44.91 329.86 42.37C329.971 42.2704 330.051 42.1415 330.092 41.9982C330.133 41.8549 330.132 41.703 330.09 41.56C330.88 34.38 334.99 28.86 340.09 24.44C348.54 17.08 358.25 12.53 369.99 15.19L376.74 16.43Z" fill="#FDBE23"/>
<path d="M369.97 15.15C350.37 14.4 337.3 23.52 330.11 41.52C328.34 39.59 326.03 40.52 323.98 40.52C228.507 40.4667 133.037 40.4667 37.5703 40.52C31.0303 40.52 30.7904 40.52 31.1004 34.06C31.3804 28.18 29.7304 22.17 32.1004 16.41C32.1004 22.9 32.2404 29.41 31.9904 35.89C31.8704 39.04 32.9904 40.15 35.9904 39.73C36.6563 39.685 37.3245 39.685 37.9904 39.73C133.09 39.73 228.194 39.7567 323.3 39.81C327.3 39.81 329.23 38.74 331.16 35.01C338.71 20.41 351.02 13.16 367.57 13.26C369.08 13.26 370.9 14.36 372.08 12.42C373.82 15.12 370.18 13.88 369.97 15.15Z" fill="#2C271B"/>
<path d="M75.8403 193.58C71.4103 179.68 62.8403 169.88 48.3703 165.95C42.9603 164.48 37.4803 165.12 32.0203 165.18C30.8403 163.41 30.9203 161.42 30.9203 159.42C30.9203 122.04 30.9203 84.6633 30.9203 47.29C30.9203 45.64 29.9803 43.55 32.2103 42.41C32.0603 44.22 31.7903 46.03 31.7903 47.85C31.7903 84.59 31.7903 121.337 31.7903 158.09C31.7903 159.87 30.6203 162.14 33.0103 163.46C36.9586 164 40.962 164 44.9103 163.46C53.6803 164.2 60.6003 168.75 67.0603 174.23C68.5703 174.908 69.8969 175.937 70.9303 177.23C73.3007 180.227 75.2054 183.565 76.5803 187.13C77.2003 188.75 78.3203 190.46 76.8603 192.25L75.8403 193.58Z" fill="#292D1E"/>
<path d="M329.851 42.33C329.481 45.01 329.121 47.68 328.751 50.33C326.951 53.28 328.451 56.61 327.751 59.68C325.141 55.68 326.751 51.45 326.901 47.29C327.181 45.66 327.45 44.02 327.72 42.39L329.851 42.33Z" fill="#20211A"/>
<path d="M370.73 69.37C372.57 73.07 370.33 80.21 366.51 82.62C362.69 85.03 360.12 83.01 357.82 80.09C357.19 79.09 357.55 78.42 358.45 77.9C360.09 75.42 357.67 74.9 356.45 74.14C354.22 72.82 351.61 72.2 349.45 70.75C347.31 68.96 345.19 67.17 344.82 64.15C344.69 62.6361 344.69 61.1139 344.82 59.6C344.889 58.854 345.132 58.1345 345.53 57.5C347.2 53.82 350.05 50.86 351.88 47.27C358.01 45.11 359.64 46.16 361.05 51.77C362.59 58.44 363.71 65.6 370.73 69.37Z" fill="#FDFDFD"/>
<path d="M401.87 51.39C405.27 55.29 402.5 59.66 401.46 62.9C396.72 77.61 385.87 88.7 367.54 89.51C366.08 89.58 363.86 90.62 363.23 88.41C362.6 86.2 364.72 85.35 366.4 84.7C371.63 82.65 372.65 77.94 373.79 73.28C374.083 72.6113 374.558 72.0385 375.161 71.6266C375.764 71.2147 376.47 70.9802 377.2 70.95C388.97 69 397.24 62.45 401.87 51.39Z" fill="#08A3BF"/>
<path d="M351.74 47.26C352.88 52.38 347.1 53.52 345.97 57.33C345.87 57.4199 345.752 57.4866 345.623 57.5252C345.494 57.5638 345.358 57.5734 345.225 57.5533C345.093 57.5332 344.966 57.484 344.854 57.409C344.743 57.3341 344.649 57.2354 344.58 57.12L350.81 46.12L351.74 47.26Z" fill="#322E24"/>
<path d="M119.97 376.16C116.26 378.78 114.04 383.43 108.97 384.22C107.761 383.349 106.498 382.554 105.19 381.84C100.38 379.59 99.7096 375.91 103.57 372.06C105.22 370.42 107.01 368.92 108.68 367.3C115.51 360.67 115.91 354.88 110.1 347.12C105.1 342.05 98.6896 338.26 95.3996 331.49C93.6596 327.91 90.6296 327.03 85.6396 328.25C78.7636 331.531 73.146 336.966 69.6396 343.73C65.9996 351.13 66.3496 358.02 72.2496 364.19C73.2229 365.302 73.7873 366.713 73.8496 368.19C74.6096 371.54 77.4596 372.12 80.1296 372.98C81.6996 373.48 83.5996 374.07 83.5196 375.98C83.4196 378.31 81.2496 378.58 79.4496 378.71C75.8578 379.029 72.3126 379.747 68.8796 380.85C64.7996 382.06 63.8796 377.31 61.1396 375.85L59.1896 372.99C52.1196 364.46 51.3196 354.51 53.5796 344.32C57.3696 327.21 70.7596 315.43 88.8496 314.32C102.85 313.47 114.65 319.63 122.4 331.42C130.47 343.68 131.4 356.9 124.4 370.22C124.096 370.619 123.697 370.935 123.24 371.14L119.97 376.16Z" fill="#06A4C1"/>
<path d="M358.15 326.97C354.31 325.8 352.97 323.12 353.65 319.33C354.43 315.06 357.75 315.2 360.99 315.21C365.47 315.21 369.99 315.21 374.44 315.21C377.72 315.21 380.96 315.21 381.8 319.36C382.64 323.51 380.52 325.92 376.62 326.99L358.15 326.97Z" fill="#FAFAFA"/>
<path d="M123.23 371.26C128.3 360.98 129.71 350.39 125.48 339.48C123.688 334.724 120.941 330.386 117.407 326.734C113.874 323.081 109.629 320.192 104.935 318.243C100.241 316.295 95.1979 315.33 90.1164 315.407C85.0349 315.483 80.023 316.601 75.3902 318.69C55.9802 327.26 47.9002 350.69 57.6702 369.99C58.1902 370.99 58.6702 372.06 59.1902 373.09L57.6402 373.29C49.5402 361.23 49.6402 343.58 57.7502 331.41C62.0809 324.742 68.329 319.541 75.6724 316.492C83.0157 313.444 91.1101 312.69 98.8902 314.33C113.73 317.33 126.35 330.11 129.03 344.82C130.81 354.62 129.77 363.94 124.14 372.44L123.23 371.26Z" fill="#0F2023"/>
<path d="M374.85 233.26C375.107 233.418 375.414 233.475 375.71 233.42C390.71 237.89 400.71 247.25 404.19 262.87C404.534 264.49 404.738 266.136 404.8 267.79C405.29 278.52 405.27 278.51 395.27 282.24C394.075 282.768 392.912 283.369 391.79 284.04C389.98 282.12 390.02 282.13 390.79 279.39C392.72 272.68 394.71 265.98 391.79 259.02C390.09 254.91 388.04 251.18 382.98 250.59C378.35 250.45 376.31 246.34 373.05 244.11C370.664 242.383 367.791 241.459 364.846 241.47C361.9 241.48 359.034 242.426 356.66 244.17C354.275 245.742 352.401 247.976 351.268 250.598C350.135 253.22 349.791 256.116 350.28 258.93C350.69 261.99 350.67 264.81 349.28 267.62C345.63 274.87 345.33 281.86 351.17 288.27C351.05 289.14 350.74 289.75 349.69 289.39C342.651 286.725 336.508 282.125 331.97 276.12C328.53 271.78 330.3 266.12 331.57 261.22C336.45 242.41 352.34 231.48 371.87 233.13C372.86 233.26 373.85 233.19 374.85 233.26Z" fill="#E64B3F"/>
<path d="M391.89 285.26L402.32 281.81C399.99 295.41 384.32 307.03 368.66 307.27C350.86 307.54 335.36 295.88 331.84 278.74C339.23 284.9 345.63 291.44 354.91 293.03C355.566 292.696 356.329 292.635 357.03 292.86C357.871 293.372 358.489 294.183 358.76 295.13C360.92 300.81 361.76 301.32 367.76 300.32C371.05 299.32 373.34 297.26 375.48 294.51C379.58 289.26 385.78 287.26 391.89 285.26Z" fill="#FDBE23"/>
<path d="M356.69 293.31L354.91 293.05L357.06 292.1C357.48 290.05 355.7 290.77 354.88 290.51C353.36 290.03 351.721 289.9 350.781 288.36C344.231 282.51 343.53 278.36 347.69 268.36C349.028 265.587 349.496 262.474 349.031 259.43C347.911 252.57 350.361 246.37 356.401 242.72C362.071 239.3 368.3 239.03 374.14 243.06C374.043 243.417 373.862 243.746 373.614 244.021C373.365 244.295 373.056 244.507 372.71 244.64C371.71 244.791 370.689 244.736 369.71 244.48C359.71 242.72 355.08 245.63 351.94 255.59C351.43 256.02 352.67 256.01 352.09 255.68C351.81 255.51 352.02 255.46 352.18 255.19C353.11 253.57 354.18 254.13 354.89 255.19C358.26 259.92 363.35 261.38 368.59 262.67C371.4 263.36 373.84 264.47 372.16 268.17C371.977 268.324 371.765 268.439 371.537 268.51C371.309 268.58 371.068 268.604 370.83 268.58C366.47 266.05 361.3 265.58 356.89 263.2C355.21 262.28 354.11 263.27 353.13 264.6C350.556 268.112 348.914 272.22 348.36 276.54C347.76 281 349.92 283.98 354.8 285.99C357.39 287.06 360.29 287.57 362.18 289.94C364.63 292.99 363.87 295.06 359.98 296.03C358.45 295.65 358.3 293.58 356.69 293.31Z" fill="#251818"/>
<path d="M391.89 285.26C387.89 287.45 384.33 290.61 379.71 291.68C379.067 291.832 378.476 292.151 377.995 292.604C377.514 293.056 377.161 293.628 376.97 294.26C375.34 298.2 372.21 300.43 368.13 301.43C367.08 301.8 366.73 301.21 366.63 300.31C373.29 296.16 374.27 289.67 373.88 282.62C374.011 282.124 374.25 281.663 374.58 281.27C374.783 281.133 375.013 281.041 375.254 281C375.495 280.958 375.743 280.969 375.98 281.03C376.985 281.899 377.656 283.09 377.88 284.4C379.08 288.4 380.1 288.71 383.47 286.14C394.81 277.53 393.99 258.71 381.96 251.6C381.17 250.37 382.14 249.84 382.89 249.22C390.3 250.36 395.62 258.92 394.61 268.22C394.288 272.512 393.293 276.727 391.66 280.71C391.2 281.71 389.84 283.01 391.82 284C391.82 284.43 391.85 284.86 391.89 285.26Z" fill="#170F0D"/>
<path d="M349.281 304.99C348.638 305.094 348.01 305.275 347.41 305.53C346.04 306.3 344.93 307.71 343.16 306C341.08 304 342.97 302.85 343.81 301.42L349.281 304.99Z" fill="#E4E3E3"/>
<path d="M350.78 288.36C353.18 289.01 355.58 289.62 357.96 290.36C358.65 290.56 359.82 290.8 358.96 291.89C358.69 292.25 357.71 292.07 357.06 292.13C354.78 290.75 351.75 291.41 349.71 289.38L350.78 288.36Z" fill="#B1473F"/>
<path d="M326.85 47.32C327.25 51.44 326.14 55.66 327.7 59.71C329.7 72.35 336.98 81.19 347.97 87.27C349.25 87.98 350.58 88.62 351.88 89.27C351.084 92.3045 351.016 95.484 351.68 98.55C350.99 101.76 351.8 105.13 350.68 108.3C349 111.2 350.19 114.37 349.87 117.4C349.42 121.64 347.87 124.65 342.87 124.27C340.79 125.27 338.6 124.71 336.47 124.72C320.17 124.767 303.863 124.767 287.55 124.72C285.78 124.72 283.86 125.3 282.3 123.85C280.61 121.59 280.35 118.94 280.3 116.26C280.227 99.7667 280.227 83.2833 280.3 66.81C280.195 64.8067 280.537 62.8051 281.3 60.95C282.39 57.79 285.4 58.06 287.85 57.31C298.85 57.31 309.76 57.18 320.72 57.38C324.46 57.45 326.37 56.63 325.85 52.47C325.71 50.79 325.26 48.8 326.85 47.32Z" fill="#E7E5E5"/>
<path d="M358.88 78.1C358.53 78.76 358.18 79.43 357.82 80.1C355.39 82.57 358.62 83.64 359.43 84.78C360.43 86.11 361.33 87.24 360.49 88.56C359.65 89.88 358.08 88.84 356.85 88.56C341.74 85.35 328.55 69.33 328.85 53.13C334 53.35 338.16 56.44 342.85 57.99C344.46 58.52 344.78 60.15 344.96 61.68C345.84 63.09 343.17 64.68 345.2 66.06C346.84 67.79 347.81 70.13 350.04 71.33C352.735 72.4966 355.341 73.8568 357.84 75.4C358.97 75.99 359.86 76.72 358.88 78.1Z" fill="#08A3C0"/>
<path d="M377.8 109.04L375.9 109.46C369.34 111.03 362.68 110.25 356.07 110.13C352.34 110.06 350.65 107.31 350.91 103.08C351.14 99.53 352.72 97.57 356.56 97.79C363.65 98.2 370.78 97.12 377.85 98.34C381.35 101.92 380.97 105.49 377.8 109.04Z" fill="#FCFCFC"/>
<path d="M351.05 98.36C349.68 95.19 348.05 91.99 351.88 89.29C358.009 91.2524 364.477 91.9332 370.88 91.29C372.26 91.13 373.88 90.53 373.97 93.06C374.06 95.59 372.89 96 370.7 96.06C365.11 96.2 359.49 95.4 353.93 96.57C353.27 97.64 352.6 98.74 351.05 98.36Z" fill="#F5F5F5"/>
<path d="M351.05 98.36L353.98 96.61C360.05 97.82 366.18 96.8 372.27 97.19C374.16 97.31 376.27 96.46 377.85 98.34C370.92 98.21 363.99 98.06 357.06 97.98C353.34 97.98 351.66 100.04 351.69 103.61C351.72 107.18 353.36 109.24 357.07 109.28C363.35 109.36 369.62 109.4 375.9 109.46L373.79 111.4C368.73 111.4 363.66 111.32 358.6 111.4C355.49 111.46 352.79 110.73 350.7 108.31C349.978 106.739 349.635 105.021 349.695 103.294C349.756 101.566 350.22 99.8765 351.05 98.36Z" fill="#373737"/>
<path d="M344.76 61.88C342.89 56.95 337.54 57.78 334.01 55.57C332.5 54.63 330.58 53.99 328.88 53.14L330.88 51.47C335.56 53.12 339.73 56.01 344.62 57.13L346.01 57.34L345.76 59.34C344.97 60.02 345.88 61.32 344.76 61.88Z" fill="#20211A"/>
<path d="M108.7 347.26C109.1 348.16 109.5 349.07 109.91 349.97C113.53 357.97 112.91 360.43 106.58 366.46C102.47 370.34 97.16 373.37 96.08 380.3C98.08 378.41 99.54 377.38 98.88 380.98C97.31 386.6 94.46 387.98 88.37 386.16C87.08 385.43 85.68 384.81 85.22 383.16C84.67 382.36 83.49 381.11 83.68 380.84C86.45 376.99 85.34 372.52 85.91 368.33C85.58 367.64 85.34 366.92 85.04 366.22C84.74 365.52 84.88 364.88 84.63 364.3C80.8 355.21 83.74 348.04 90.84 342C91.692 341.224 92.4658 340.367 93.15 339.44C97.15 335.23 98.24 335.24 101.28 339.5C101.13 339.969 100.823 340.371 100.41 340.64C99.77 341.08 98.88 341.41 99.41 342.48C99.56 342.79 99.9 343.06 100.18 342.95C101.25 342.51 100.51 341.53 100.72 340.82C100.798 340.503 100.938 340.204 101.13 339.94C105.79 340.26 106.78 344.26 108.7 347.26Z" fill="#FDFDFD"/>
<path d="M85.2201 383.26L88.0001 384.64C90.0701 387.91 92.6301 387.35 95.5101 385.79C97.2201 384.85 98.1201 382.79 100.19 382.46C102.73 383.01 105.39 383.24 107.39 385.23C99.5901 392.55 78.1201 391.33 69.6201 382.68C74.1501 381.68 77.9501 378.18 82.2301 382.79C82.7001 383.26 84.0201 384.46 85.2201 383.26Z" fill="#E14A3E"/>
<path d="M108.7 347.26C105.7 345.26 104.85 340.93 100.83 340.06L100.96 340.17C98.6401 335.59 96.3501 336.9 94.0801 340.17C93.1601 340.51 92.7801 339.94 92.4901 339.17C92.4254 338.84 92.4254 338.5 92.4901 338.17C93.9201 330.17 93.9201 330.17 86.1401 328.82C85.4601 328.47 84.9201 328.04 85.0801 327.15C91.8401 324.93 95.0801 326.39 97.2201 332.85C97.4536 333.811 98.0527 334.643 98.8901 335.17C103.74 338.05 106.89 342.6 110.17 346.97L108.7 347.26Z" fill="#131A1A"/>
<path d="M92.8295 338.96C93.2395 339.39 93.6595 339.81 94.0795 340.23C93.3895 341.12 92.8896 342.44 91.9796 342.84C85.9796 345.44 86.4895 351.97 83.6395 356.45C82.7795 357.81 84.1195 358.88 84.5695 360.04C85.3395 362.04 86.7496 363.79 85.9896 366.1C83.2496 367.91 79.5196 365.37 76.9896 368.1L75.1495 366.35L74.7695 365.74C75.9995 361.79 79.3795 362.23 82.4395 362.03C79.3295 353.68 84.5095 342.17 92.8295 338.96Z" fill="#4B4432"/>
<path d="M73.8501 368.26C70.7901 364.43 66.9701 361.14 66.3801 355.75C65.8801 351.19 65.9301 346.86 68.8201 343.01L69.4101 343.45C69.6684 343.877 69.826 344.358 69.8711 344.855C69.9161 345.352 69.8474 345.853 69.6702 346.32C66.9602 353.2 69.1001 358.88 73.8901 363.95C74.3877 364.61 74.7605 365.356 74.9902 366.15L75.1601 366.44C74.7201 367 74.2901 367.61 73.8501 368.26Z" fill="#3D462D"/>
<path d="M76.9698 368.15C76.3298 364.82 78.7598 365.31 80.6798 365.15C82.5998 364.99 84.0198 366.81 85.9598 366.15L85.8797 368.43C85.3397 367.94 84.7198 366.77 84.0398 367.94C81.7798 371.87 79.4398 370.46 76.9698 368.15Z" fill="#E7E7E7"/>
<path d="M100.19 382.41C98.6289 384.485 96.5637 386.127 94.1902 387.18C91.1902 388.54 88.8302 388.37 87.9902 384.59C93.5702 387.02 95.2302 386.47 98.8702 381L100.19 382.41Z" fill="#513734"/>
<path d="M17.9698 226.06C10.1198 215.06 10.7497 203.06 14.8197 191.06C19.8897 176.06 35.1898 169.06 50.0998 174.37C57.6698 177.06 62.1598 182.2 63.1798 190.31C64.1998 198.42 64.0398 206.58 67.0398 214.31L69.0398 216.31C67.4298 220.55 63.4098 220.76 59.8698 221.7C57.5074 222.468 54.9885 222.623 52.5498 222.15C51.0798 221.64 49.4797 221.34 48.7597 219.68C50.0397 216.05 53.3697 213.51 54.1997 209.63C54.8397 208.11 54.7598 206.45 55.0498 204.87C56.2698 198.27 55.7397 197.78 49.1397 199.22C47.6073 199.842 46.2803 200.881 45.3098 202.22C43.6198 204.22 41.8597 204.7 40.1497 202.16C39.5497 201.27 39.1497 199.76 37.6297 200.53C37.1343 200.846 36.7546 201.314 36.5473 201.864C36.34 202.413 36.3163 203.016 36.4798 203.58C37.3398 209.08 36.9398 214.82 39.6098 219.97C39.9811 220.843 40.1977 221.773 40.2498 222.72C40.8898 224.96 38.0797 228.3 42.3897 229.38C42.5364 229.71 42.602 230.069 42.5811 230.43C42.5603 230.79 42.4535 231.14 42.2697 231.45C39.4297 234.1 36.3198 233.28 33.6698 231.53C29.2098 228.58 24.5898 227.2 19.3098 228.32C18.2798 227.93 18.2098 226.94 17.9698 226.06Z" fill="black"/>
<path d="M52.0803 221.17C58.2803 221.49 64.0303 220.17 69.0803 216.33L74.4803 212.99C69.9103 231.58 48.2903 243.55 29.2103 238.14C26.1503 236.7 23.0903 235.24 20.0103 233.85C16.7003 232.35 16.5403 230.54 19.3503 228.35C23.5603 224.9 27.6403 226.29 31.4603 228.94C34.7403 231.22 38.0003 232.74 41.9903 231.02C43.3503 229.38 44.6403 227.81 44.6803 225.42C44.7703 219.97 44.9303 219.93 50.2403 220.72C50.8799 220.728 51.5092 220.882 52.0803 221.17Z" fill="#E54B3F"/>
<path d="M76.9704 192.26C76.2304 186.54 72.8404 182.05 70.0304 177.26C69.2757 175.962 68.9274 174.468 69.0304 172.97C69.0804 163.32 69.0304 153.67 69.0304 143.97C69.0904 138.08 70.9204 136.25 76.8904 136.23C96.6904 136.17 116.49 136.23 136.29 136.23C183.044 136.23 229.794 136.247 276.54 136.28C278.87 136.28 281.63 135.28 283.39 137.92C283.72 151.72 283.39 165.53 283.52 179.34C283.52 184.84 283.44 190.34 283.61 195.83C283.8 201.66 283.8 201.67 278.05 201.67H86.2404C79.0804 201.67 79.0804 201.67 78.0604 195.19L76.9704 192.26Z" fill="#FEFEFE"/>
<path d="M78.0596 195.26C78.5096 201.19 82.2996 201.36 87.1696 201.35C150.503 201.197 213.86 201.197 277.24 201.35C280.91 201.35 282.309 201.35 282.159 196.49C281.579 178.39 281.9 160.25 281.97 142.12C282.146 140.817 282.482 139.541 282.97 138.32C283.41 137.18 283.63 135.89 284.97 135.32C303.276 135.32 321.583 135.32 339.89 135.32C347.3 135.32 349.89 137.86 349.89 145.07C349.89 161.21 349.89 177.353 349.89 193.5C349.89 200.68 348.26 202.28 341.12 202.29C332.97 202.29 324.799 202.55 316.659 202.22C309.149 201.91 301.78 203.49 294.31 203.22C225.31 201.01 156.31 202.89 87.2296 202.16C82.4096 202.16 78.4995 202.16 78.1295 208.23C78.1095 203.897 78.0862 199.573 78.0596 195.26Z" fill="#E7E5E5"/>
<path d="M50.0398 245.2C51.9198 244.77 52.7698 246.53 54.1598 247.15C54.8907 247.512 55.464 248.128 55.7716 248.884C56.0793 249.639 56.0999 250.481 55.8297 251.25C55.0397 253.96 56.3898 257.95 51.6198 258.25C51.5313 258.108 51.4671 257.953 51.4298 257.79C50.6698 248.66 50.6597 248.85 40.8897 248.58C36.2597 248.44 31.3397 250.11 27.0097 247.05C26.9957 246.766 27.033 246.481 27.1198 246.21C33.2198 246.21 39.3198 246.21 45.4098 246.06C46.9698 246.05 48.7398 246.76 50.0398 245.2Z" fill="#404040"/>
<path d="M58.9698 236.06C58.9698 237.84 61.2697 240.28 57.7097 241.06C55.4097 241.57 54.9998 240.06 55.0498 238.19L58.9698 236.06Z" fill="#E1DFDF"/>
<path d="M71.8803 223.98C72.2603 227.07 72.3203 229.9 67.8203 229.11L71.8803 223.98Z" fill="#D6D5D5"/>
<path d="M45.4705 240.38C41.3112 241.69 36.8497 241.69 32.6904 240.38H45.4705Z" fill="#2E2E2E"/>
<path d="M90.4602 398.01C93.4602 398.01 96.4602 398.01 99.4602 398.01C103.02 398.01 104.63 400.01 104.8 403.23C104.99 406.65 103.49 409.17 99.8002 409.23C93.6735 409.377 87.5402 409.377 81.4002 409.23C77.7002 409.13 76.1502 406.73 76.3202 403.23C76.4702 399.95 78.0802 397.97 81.6002 397.99L90.4602 398.01Z" fill="#FBFBFB"/>
<path d="M26.97 247.07C32.72 247.01 38.47 246.9 44.22 246.88C53.51 246.88 55.3499 249.73 51.5799 258.27L51.66 258.19C45.53 258.24 39.39 258.34 33.25 258.33C30.48 258.33 27.3199 258.97 25.6899 255.87C24.0599 252.77 25.08 249.79 26.97 247.07Z" fill="#FDFDFD"/>
<path d="M287.97 57.33C286.55 58.74 283.97 58.22 282.97 60.33C280.687 60.7942 278.356 60.9755 276.03 60.87C246.41 60.87 216.79 60.87 187.17 60.87C185.34 60.87 183.51 60.87 181.69 60.99C178.55 61.24 176.69 62.89 176.69 66.07C176.5 75.88 176.44 85.7 176.69 95.51C176.76 97.82 178.03 99.58 179.58 101.15C185.29 106.98 191.13 112.66 196.84 118.49C199.69 121.4 203.14 121.81 206.9 121.8C229.7 121.8 252.496 121.8 275.289 121.8C277.909 121.8 280.67 121.38 282.94 123.29C284.4 124.94 286.36 124.29 288.1 124.29C306.38 124.343 324.66 124.343 342.94 124.29C341.45 125.89 339.5 125.29 337.74 125.29C286.626 125.33 235.51 125.33 184.39 125.29C175.21 125.29 173.03 123.05 173.02 113.71C173.02 98.5567 173.02 83.4033 173.02 68.25C173.02 59.69 175.4 57.34 184.02 57.34C218.653 57.2866 253.303 57.2833 287.97 57.33Z" fill="#EEEDED"/>
<path d="M284.97 135.26C284.31 136.26 283.64 137.26 282.97 138.26C281.49 136.64 279.54 137.26 277.78 137.26C210.993 137.26 144.197 137.26 77.39 137.26C70.65 137.26 70.0799 137.86 70.0699 144.78C70.0699 155.607 70.0699 166.433 70.0699 177.26L67.21 174.18C69.11 170.56 67.88 166.68 68.03 162.94C68.26 157.12 68.03 151.29 68.09 145.46C68.09 137.78 70.58 135.26 78.18 135.26H254.97H284.97Z" fill="#EEEDED"/>
<path d="M175.91 284.02H227.1C224.1 281.02 221.74 278.57 219.4 276.11C218.78 275.45 217.64 274.67 218.72 273.66C219.61 272.83 220.63 273.47 221.35 274.18C224.55 277.32 227.726 280.49 230.88 283.69C231.94 284.75 232.35 286.06 231.25 287.24C227.521 291.369 223.512 295.235 219.25 298.81C219.25 294.9 222.71 293.65 224.48 291.16C225.2 290.16 226.98 289.55 226.33 287.98C225.78 286.67 224.27 287.23 223.18 287.23C208.38 287.19 193.58 287.19 178.78 287.23C177.69 287.23 176.18 286.67 175.62 287.96C174.93 289.53 176.62 290.22 177.45 291.12C179.53 293.35 181.72 295.48 183.86 297.65L182.39 299.14L170.19 286.42C170.1 286.32 170.12 286.1 170.11 285.93C169.98 284.35 180.66 273.27 182.3 273.36C182.72 273.36 183.48 273.78 183.47 273.97C183.481 274.603 183.269 275.219 182.87 275.71C180.29 278.06 177.64 280.32 175.01 282.61L175.91 284.02Z" fill="#EAE8E8"/>
<path d="M344.38 350.17C340.54 350.58 339.02 348.17 338.98 344.84C338.94 341.51 341.08 339.22 344.53 339.28C345.24 339.241 345.949 339.354 346.612 339.611C347.274 339.868 347.875 340.263 348.372 340.77C348.87 341.278 349.254 341.885 349.498 342.552C349.743 343.22 349.842 343.931 349.79 344.64C349.81 347.93 348.48 350.47 344.38 350.17Z" fill="#E8E6E6"/>
<path d="M344.63 221.14C347.63 221.85 349.93 223.46 349.79 226.77C349.65 230.08 347.53 232.42 343.97 232.12C343.255 232.118 342.548 231.965 341.896 231.67C341.244 231.374 340.663 230.944 340.19 230.407C339.717 229.87 339.364 229.238 339.154 228.554C338.944 227.871 338.881 227.15 338.97 226.44C339.17 223.19 341.37 221.57 344.63 221.14Z" fill="#E8E6E6"/>
<path d="M55.8301 251.26L54.1602 247.16C56.1602 246.24 58.6002 245.16 59.4802 247.83C60.2002 250 57.8801 250.95 55.8301 251.26Z" fill="#E6E5E5"/>
<path d="M44.9701 163.43C41.0895 164.575 36.9607 164.575 33.0801 163.43C37.0207 162.83 41.0295 162.83 44.9701 163.43Z" fill="#060606"/>
<path d="M74.7496 18.37C77.8196 18.87 79.7495 20.37 79.6595 23.29C79.5895 26.29 77.7695 28.35 74.6095 28.13C73.9802 28.126 73.3588 27.9891 72.786 27.7284C72.2132 27.4676 71.7019 27.0889 71.2856 26.6169C70.8693 26.1449 70.5574 25.5903 70.3702 24.9894C70.1831 24.3886 70.1249 23.7549 70.1995 23.13C70.3395 20.26 72.2296 18.79 74.7496 18.37Z" fill="#0A0A0A"/>
<path d="M59.8598 22.8C59.3298 25.46 58.1197 27.47 55.0697 27.43C51.8097 27.43 50.1897 25.43 50.3197 22.43C50.4397 19.58 52.3198 17.96 55.2298 18.06C58.1398 18.16 59.5298 20.01 59.8598 22.8Z" fill="#0C0B0B"/>
<path d="M94.8599 19.1C97.9699 19.57 99.5999 21.28 99.4599 24.18C99.3199 27.08 97.4599 28.83 94.5399 28.63C93.9022 28.6484 93.2683 28.5269 92.6826 28.2742C92.0969 28.0215 91.5736 27.6436 91.1495 27.1671C90.7255 26.6906 90.4109 26.127 90.2278 25.516C90.0447 24.9049 89.9976 24.2612 90.0899 23.63C90.2299 20.65 92.2499 19.42 94.8599 19.1Z" fill="#060606"/>
<path d="M358.88 78.1C355.73 75.88 352.95 73.02 348.88 72.27C348.12 70.98 348.15 70.12 349.98 70.21C354.98 72.11 360.98 72.78 361.68 80.05C360.06 80.4 359.97 78.47 358.88 78.1Z" fill="#29383C"/>
<path d="M350.03 70.26C349.655 70.4262 349.346 70.7137 349.154 71.0765C348.962 71.4392 348.897 71.8561 348.97 72.26L344.72 66.47C344.38 65.38 344.08 64.3 345.85 64.33C346.39 66.89 348.47 68.36 350.03 70.26Z" fill="#364E53"/>
<path d="M345.81 64.34C344.81 64.74 344.92 65.69 344.68 66.48C338.33 64.83 345.23 63.43 344.76 61.88C344.655 61.4007 344.694 60.9012 344.872 60.4439C345.049 59.9867 345.359 59.5922 345.76 59.31L345.81 64.34Z" fill="#946D6C"/>
<path d="M357.04 57.47C356.21 57.47 355.72 57.16 355.8 56.34C355.821 55.532 356.079 54.7481 356.544 54.0865C357.008 53.4248 357.657 52.9147 358.41 52.62C358.95 52.42 359.67 53.06 359.59 53.81C359.558 54.5998 359.302 55.3642 358.85 56.0128C358.398 56.6614 357.77 57.167 357.04 57.47Z" fill="#3A3A3A"/>
<path d="M350.49 65.85L356.78 64.25C355.17 67.61 355.17 67.61 350.49 65.85Z" fill="#333333"/>
<path d="M390.97 70.89C390.565 70.9082 390.169 70.7731 389.859 70.5118C389.55 70.2504 389.35 69.882 389.3 69.48C389.256 69.2803 389.252 69.0739 389.288 68.8727C389.324 68.6714 389.399 68.4793 389.51 68.3073C389.621 68.1354 389.764 67.987 389.932 67.8707C390.101 67.7545 390.29 67.6727 390.49 67.63C391.61 67.4 392.31 68.14 392.4 69.24C392.51 70.16 391.86 70.66 390.97 70.89Z" fill="#A57677"/>
<path d="M378.56 84.45C378.27 85.28 377.85 85.99 376.89 85.91C376.69 85.9195 376.49 85.8858 376.304 85.8113C376.117 85.7368 375.949 85.6231 375.811 85.4781C375.673 85.333 375.567 85.1599 375.501 84.9704C375.435 84.781 375.411 84.5796 375.43 84.38C375.51 83.3 376.13 82.48 377.28 82.69C377.673 82.7741 378.021 83.0003 378.257 83.3251C378.493 83.6499 378.601 84.0505 378.56 84.45Z" fill="#9E6C6E"/>
<path d="M85.0303 327.26L86.3104 328.32C83.0904 332.49 77.9304 334.42 74.6204 338.58C73.1704 340.41 72.1204 342.99 69.3004 343.41C69.1663 343.226 69.0043 343.064 68.8203 342.93C72.1362 335.908 77.8998 330.336 85.0303 327.26Z" fill="#2E3426"/>
<path d="M376.06 281.26L375.06 281.11C373.06 282.5 372.06 280.75 370.72 279.85C367.79 275.28 367.859 272.65 371.039 268.18L372.039 268.1C377.649 265.89 379.41 261.71 378.61 255.94C378.325 253.456 377.277 251.122 375.61 249.26C374.34 247.83 372.44 246.67 372.81 244.26L374.13 242.97C377 245.07 378.55 249.05 382.85 249.11L381.95 251.34C384.7 253.62 384.33 256.67 383.8 259.63C382.962 263.348 383.208 267.228 384.51 270.81C386.74 276.63 382.4 281.59 376.06 281.26Z" fill="#040202"/>
<path d="M366.87 300.26L368.1 301.4C361.28 303.4 358.73 301.8 357.76 294.91C357.69 294.34 357.06 293.85 356.69 293.32C358.43 292.77 358.78 294.53 359.8 295.19C360.53 299.13 364.62 298.42 366.87 300.26Z" fill="#4D4533"/>
<path d="M366.87 300.26C360.08 300.26 359.18 299.65 359.8 295.19C360.55 294.38 362.42 295.47 362.54 293.74C362.64 292.906 362.488 292.06 362.105 291.312C361.722 290.564 361.125 289.947 360.39 289.54C358.278 288.626 356.114 287.834 353.91 287.17C348.8 285.32 346.19 281.17 347.04 275.98C347.981 270.899 350.09 266.106 353.2 261.98C353.71 261.26 354.2 259.87 355.45 260.79C359.7 264.01 364.91 264.59 369.74 266.21C370.74 266.53 370.74 267.43 370.99 268.21C370.37 271.97 367.45 275.86 371.64 279.33C373.36 281.8 370.95 282.02 369.7 282.64C367.55 283.7 365.25 283 363.7 283.1C366.205 283.472 368.764 283.193 371.13 282.29C372.23 281.83 373.58 281.06 374.76 282.35C374.83 283.67 374.86 285 374.96 286.35C375.62 294.76 374.49 296.71 366.87 300.26Z" fill="#FDFDFD"/>
<path d="M372.82 244.33C376.17 248.43 380.82 251.55 380.23 258.11C379.48 265.85 379.83 265.92 372.02 268.11C372.43 265.17 370.89 264.26 368.19 263.61C358.66 261.32 357.67 260.61 353.26 254.95C351.82 256.26 354.01 258.64 351.85 259.66C349.13 253.3 353.63 244.92 360.72 243.11C364.771 242.078 369.056 242.51 372.82 244.33Z" fill="#FC393C"/>
<path d="M376.06 281.26C384.43 278.35 385.15 276.71 381.64 267.94C381.15 266.7 381.7 265.7 381.82 264.59C382.28 260.18 383.15 255.79 381.96 251.37C387.43 250.97 389.71 254.93 391.14 258.95C394.61 268.71 392.06 277.6 385.93 285.57C384.823 286.82 383.458 287.816 381.93 288.49C379 289.98 376.46 290.49 376.76 285.66C376.697 284.171 376.462 282.695 376.06 281.26Z" fill="#FB393C"/>
<path d="M374.77 282.36C370.77 283.31 366.95 284.85 362.77 284.19C361.7 284.02 360.39 284.83 359.77 283.39C359.692 283.164 359.663 282.924 359.685 282.686C359.708 282.448 359.781 282.217 359.9 282.01C360.77 280.74 361.8 281.36 362.96 281.7C365.501 282.546 368.264 282.436 370.73 281.39C371.67 280.98 371.73 280.18 371.73 279.39C372.96 279.8 373.53 281.39 375.1 281.2L374.77 282.36Z" fill="#414141"/>
<path d="M282.9 123.26C256.6 123.26 230.3 123.21 204 123.35C202.526 123.417 201.056 123.155 199.696 122.583C198.337 122.01 197.122 121.141 196.14 120.04C190.14 113.8 183.99 107.71 177.79 101.66C176.855 100.857 176.112 99.854 175.615 98.7257C175.119 97.5974 174.881 96.3722 174.92 95.14C175.07 85.48 174.92 75.83 175 66.14C175 60.88 176.58 59.3 181.86 59.3C214.16 59.26 246.457 59.26 278.75 59.3C280.19 59.3 281.75 58.89 282.93 60.3C282.099 61.9317 281.752 63.7673 281.93 65.59C281.93 82.7 281.93 99.81 281.93 116.91C282.038 119.054 282.363 121.182 282.9 123.26Z" fill="#FEFEFE"/>
<path d="M91.8497 349.14C93.0496 349.372 94.1581 349.942 95.0442 350.784C95.9302 351.626 96.5568 352.704 96.8497 353.89C96.9155 354.092 96.9222 354.308 96.8688 354.514C96.8155 354.719 96.7043 354.905 96.5485 355.049C96.3928 355.193 96.1989 355.29 95.99 355.327C95.781 355.365 95.5658 355.341 95.3697 355.26C93.1697 354.49 91.0197 353.44 90.0897 351.12C89.6497 349.95 90.5097 349.26 91.8497 349.14Z" fill="#1C1C1C"/>
<path d="M100.83 340.08C100.911 340.388 101.032 340.684 101.19 340.96C102.09 342.09 103.45 343.12 102.69 344.76C102.33 345.55 101.31 345.54 100.52 345.09C98.96 344.19 96.8601 343.27 96.9101 341.41C97.0101 337.97 99.5901 340.66 100.91 340.19L100.83 340.08Z" fill="#3E3E3E"/>
<path d="M102.87 361.53C103.44 360.22 103.54 359.53 103.92 359.19C105.27 357.89 105.85 355.72 108.06 355.43C108.27 355.43 108.87 356.18 108.79 356.43C107.97 358.94 106.36 360.71 102.87 361.53Z" fill="#383838"/>
<path d="M69.2999 343.45C73.8199 337.12 79.1499 331.71 86.2999 328.36C95.1099 328.21 96.8698 331.07 92.8198 338.96C86.5298 342.89 84.9098 349.69 82.3498 355.91C81.0598 359.05 84.0098 361.03 84.5298 364.16C80.8198 362.64 77.3798 362.3 74.9798 366.16C67.3298 360.62 65.7599 354.37 69.2999 343.45Z" fill="#FDBE23"/>
<path d="M38.9696 220.8C36.1396 219.36 36.9695 216.41 36.5095 214.16C35.8114 210.069 35.3738 205.937 35.1995 201.79C35.0995 200.25 34.7796 198.15 37.4196 198.24C39.1796 198.3 41.3095 197.99 41.1495 200.91C41.1495 201.91 41.2695 203.07 42.5795 203.07C43.7195 203.07 44.2896 202.07 44.4696 201.07C44.9396 198.43 46.8795 198.25 48.9595 198.2C50.4495 197.67 51.9596 197.39 53.3096 198.51C54.0096 199.91 53.3896 201.37 53.4896 202.79C53.6796 205.42 55.9095 207.6 55.1995 210.43C54.1995 214.1 52.4596 217.27 49.0396 219.25C45.8496 220.89 42.3696 220.64 38.9696 220.8Z" fill="#FBFBFB"/>
<path d="M41.9703 229.42C40.766 229.736 39.5438 229.98 38.3103 230.15C37.2103 230.24 36.8203 228.87 37.4003 228.65C41.1303 227.21 37.6903 224.32 38.8103 222.43C40.2703 221.58 41.6403 219.66 43.4703 221.43C44.2678 222.142 44.8702 223.045 45.2203 224.055C45.5703 225.065 45.6564 226.148 45.4703 227.2C45.1203 229.01 44.0903 230.09 41.9703 229.42Z" fill="#EBEBEB"/>
<path d="M41.9695 229.42C44.6395 228.59 45.6696 227.06 44.5496 224.23C43.3196 221.1 41.0796 221.87 38.8096 222.43C38.8096 221.89 38.8896 221.35 38.9196 220.8C41.9196 217.89 45.5496 219.23 48.9896 219.21C49.9896 219.87 50.9896 220.52 52.0396 221.21H45.3395C46.1495 225.36 47.8595 229.75 41.9095 231.06L41.9695 229.42Z" fill="#2B1F1E"/>
<path d="M52.9697 199.14C51.9697 197.58 50.1897 198.88 48.9697 198.14C50.2097 197.79 51.4397 197.42 52.6797 197.14C55.5097 196.42 56.9797 197.14 56.7897 200.45C56.6898 203.837 56.1589 207.197 55.2097 210.45L52.1397 203.21C53.8197 202.11 54.0497 200.77 52.9697 199.14Z" fill="#A1A1A1"/>
<path d="M190.48 159.26H115.63C114.3 159.26 112.97 159.26 111.63 159.17C111.039 159.176 110.466 158.968 110.017 158.583C109.568 158.199 109.274 157.665 109.19 157.08C108.96 155.71 109.83 154.94 110.88 154.32C112.352 153.531 114.012 153.161 115.68 153.25H265.87C267.184 153.206 268.495 153.416 269.73 153.87C270.376 154.079 270.93 154.507 271.295 155.08C271.66 155.653 271.814 156.336 271.73 157.01C271.49 158.61 270.28 159.13 268.83 159.19C267.38 159.25 266.17 159.19 264.83 159.19L190.48 159.26Z" fill="#E8E6E6"/>
<path d="M196.48 166.26H264.88C266.22 166.26 267.55 166.26 268.88 166.26C270.21 166.26 271.53 166.89 271.73 168.49C271.93 170.09 270.85 170.94 269.73 171.66C268.22 172.66 266.49 172.21 264.85 172.21C219.25 172.21 173.65 172.21 128.05 172.21H125.55C123.3 172.21 121.4 171.21 121.28 168.92C121.12 166 123.63 166.24 125.61 166.24C149.23 166.253 172.853 166.26 196.48 166.26Z" fill="#E8E6E6"/>
<path d="M202.97 184.26H140.54C139.21 184.26 137.87 184.26 136.54 184.16C136.204 184.151 135.873 184.076 135.567 183.938C135.26 183.801 134.984 183.605 134.753 183.36C134.523 183.116 134.343 182.829 134.224 182.514C134.105 182.2 134.049 181.866 134.06 181.53C133.991 181.158 134.003 180.775 134.094 180.407C134.185 180.039 134.353 179.695 134.588 179.398C134.823 179.101 135.119 178.857 135.455 178.683C135.792 178.509 136.162 178.409 136.54 178.39C137.87 178.269 139.205 178.229 140.54 178.27H264.37C265.2 178.27 266.03 178.27 266.86 178.27C269.27 178.2 271.53 179 271.65 181.54C271.81 184.83 268.92 184.24 266.87 184.24C245.557 184.253 224.257 184.26 202.97 184.26Z" fill="#E8E6E6"/>
<path d="M174.97 101.66C181.81 108.55 187.541 114.31 193.251 120.1C193.901 120.77 194.93 121.42 194.32 122.59C193.86 123.46 192.88 123.26 192.09 123.26C188.26 123.26 184.44 123.4 180.62 123.26C177.14 123.1 175.1 121.08 175.01 117.57C174.89 112.77 174.97 108 174.97 101.66Z" fill="#FDFDFD"/>
<path d="M354.21 275.26C355.84 275.56 358.52 275.17 358.62 278.2C358.69 280.06 357.12 281.2 355.31 281.14C354.22 281.197 353.149 280.84 352.311 280.141C351.473 279.442 350.929 278.452 350.79 277.37C350.53 275.48 352.12 275.03 354.21 275.26Z" fill="#414141"/>
<path d="M363.9 269.07C362.97 270.77 361.83 272.54 359.69 273.22C358.85 273.49 358.57 272.58 358.69 271.97C358.855 270.924 359.298 269.941 359.971 269.123C360.645 268.306 361.525 267.683 362.52 267.32C363.41 267.05 363.97 267.91 363.9 269.07Z" fill="#1D1D1D"/>
<path d="M354.47 264.17C355.25 266.73 354.11 268.22 351.8 269.78C351.22 266.74 352.75 265.39 354.47 264.17Z" fill="#202020"/>
<path d="M238.78 106.26C229.96 106.26 221.15 106.26 212.34 106.26C210.34 106.26 207.34 106.97 207.23 103.88C207.14 100.94 210.05 100.48 212.37 100.36C216.02 100.17 219.68 100.3 223.37 100.3H262.78C264.77 100.152 266.771 100.393 268.67 101.01C270.25 101.64 272.11 101.95 271.67 104.19C271.23 106.43 269.4 106.28 267.67 106.28L238.78 106.26Z" fill="#E8E6E6"/>
<path d="M243.97 75.32C250.97 75.32 257.92 75.18 264.88 75.4C267.52 75.48 271.58 75.32 271.59 78.79C271.6 82.26 267.53 82.18 264.91 82.21C250.97 82.3634 237.03 82.3634 223.09 82.21C220.46 82.21 216.39 82.27 216.38 78.81C216.37 75.35 220.38 75.48 223.07 75.4C229.97 75.18 236.97 75.32 243.97 75.32Z" fill="#E8E6E6"/>
<path d="M250.36 88.26C256.17 88.26 261.99 88.26 267.8 88.26C269.7 88.26 271.8 88.37 271.68 90.92C271.662 91.3851 271.552 91.842 271.354 92.2635C271.157 92.685 270.877 93.0627 270.531 93.3741C270.185 93.6855 269.78 93.9244 269.34 94.0766C268.9 94.2287 268.434 94.2911 267.97 94.26C255.97 94.33 244.06 94.26 232.1 94.26C231.682 94.3067 231.26 94.2564 230.864 94.1129C230.469 93.9695 230.113 93.7367 229.822 93.4328C229.532 93.1289 229.316 92.7621 229.191 92.361C229.065 91.9598 229.034 91.5351 229.1 91.12C229.21 89.01 230.61 88.33 232.49 88.32L250.36 88.26Z" fill="#E7E6E6"/>
<path d="M52.9701 199.14C56.1401 198.74 54.9701 200.96 54.7901 202.34C54.5001 204.07 53.5401 204.64 52.1201 203.15C52.2101 201.77 52.1401 200.36 52.9701 199.14Z" fill="#070707"/>
<path d="M41.8804 205.7C41.8804 206.7 41.1805 207.14 40.3405 207.24C39.3405 207.36 38.2505 207.24 38.0605 205.97C37.9005 204.97 38.6605 204.46 39.5305 204.38C40.0156 204.279 40.5209 204.357 40.9529 204.599C41.3849 204.842 41.7144 205.233 41.8804 205.7Z" fill="#FD6668"/>
<path d="M50.1199 213.18C49.9999 214.28 49.1199 214.48 48.3599 214.47C47.1799 214.47 45.9599 214.14 45.8699 212.7C45.8358 212.494 45.8586 212.282 45.936 212.087C46.0134 211.893 46.1424 211.723 46.3091 211.597C46.4758 211.47 46.6738 211.391 46.8818 211.369C47.0899 211.347 47.3002 211.382 47.4899 211.47C48.4999 211.79 49.8399 211.73 50.1199 213.18Z" fill="#1C1C1C"/>
</g>
<defs>
<clipPath id="clip0_184_1315">
<rect width="406.9" height="411.4" fill="white"/>
</clipPath>
</defs>
</svg>
